<?xml version="1.0" standalone="no"?><!DOCTYPE svg PUBLIC "-//W3C//DTD SVG 1.1//EN" "http://www.w3.org/Graphics/SVG/1.1/DTD/svg11.dtd"><svg t="1683540991582" class="icon" viewBox="0 0 1024 1024" version="1.1" xmlns="http://www.w3.org/2000/svg" p-id="4615" width="35" height="35" xmlns:xlink="http://www.w3.org/1999/xlink"><path d="M64 512c0 247.296 200.704 448 448 448s448-200.704 448-448S759.296 64 512 64 64 264.704 64 512z" fill="#DEEDFF" p-id="4616"></path><path d="M698.368 459.776c0 113.664-81.92 206.336-183.296 206.336-101.376 0-183.296-92.16-183.296-206.336s81.92-206.336 183.296-206.336c101.376 0 183.296 92.672 183.296 206.336" fill="#F6CAA9" p-id="4617"></path><path d="M444.416 633.344h140.288v116.224H444.416V633.344z m-89.088-161.28c0 16.896-12.8 30.72-28.16 30.72s-28.16-13.824-28.16-30.72 12.8-30.72 28.16-30.72c15.872-0.512 28.16 13.312 28.16 30.72m375.808-0.512c0 16.896-12.8 30.72-28.16 30.72s-28.16-13.824-28.16-30.72 12.8-30.72 28.16-30.72c15.872 0 28.16 13.824 28.16 30.72" fill="#F6CAA9" p-id="4618"></path><path d="M444.416 650.24s26.624 13.824 65.024 13.824c45.568 2.048 74.752-13.312 74.752-13.312v13.824S534.528 691.2 512 691.2s-68.096-31.232-68.096-31.232l0.512-9.728z m47.616-447.488s-123.904 12.288-125.44 93.696c-1.536 80.896 95.744 96.768 131.584 105.472 35.84 8.704 134.656 20.48 192.512-73.728 0 0-15.872-36.864-24.576-62.464-4.096-6.656 6.144 11.264-28.672-10.24-34.304-22.016-80.896-57.856-145.408-52.736" fill="#ECB485" p-id="4619"></path><path d="M404.992 246.784s-90.112 14.848-95.744 95.744c-5.12 80.896 9.216 102.4 9.216 102.4s20.48 0 25.6 30.208c0 0 9.216 5.632 10.24 0 1.536-9.216-8.192-53.248 10.752-94.208 18.944-40.96 37.376-46.592 37.376-46.592l2.56-87.552zM642.56 335.36s24.064 31.232 28.16 62.464c3.584 26.624 8.704 76.288 8.704 76.288s6.656 4.608 11.776-6.656c4.608-11.264 3.584-23.04 8.192-25.6 23.552-15.872 17.408-81.408 16.384-88.576-5.12-29.184-29.696-76.8-29.696-76.8l-43.52 58.88z" fill="#3F3F3F" p-id="4620"></path><path d="M488.448 175.616s-128.512 5.12-129.536 90.624 99.84 109.568 136.192 118.784c35.84 9.216 134.656 21.504 192.512-77.312 0 0 14.336-44.544 5.632-71.68-4.096-7.168-24.064 17.92-58.88-5.12-34.304-23.04-80.896-60.928-145.92-55.296" fill="#3F3F3F" p-id="4621"></path><path d="M191.488 825.344s19.968-47.104 37.376-58.368c17.408-11.264 75.264-49.152 215.552-66.56 0 0 66.048 70.656 140.288 0 0 0 147.968 15.36 219.136 69.632 17.408 14.336 28.672 55.296 28.672 55.296s-117.76 135.168-314.88 135.168C301.056 960 191.488 825.344 191.488 825.344z" fill="#238AFF" p-id="4622"></path></svg>