<svg width="365" height="100" viewBox="0 0 365 100" fill="none" xmlns="http://www.w3.org/2000/svg">
<path d="M0 0H39.881L39.481 9.54665L54.4984 41.7725C63.4828 61.052 60.4065 83.7994 46.6239 100Lnan nanL46.6239 100L0 0Z" fill="#4285F4"/>
<path d="M57.5398 0H97.4207L97.0208 9.54665L112.038 41.7725C121.023 61.052 117.946 83.7994 104.164 100Lnan nanL104.164 100L57.5398 0Z" fill="#4285F4"/>
<path d="M113.095 0H155.329L132.5 41V41C131.506 35.6992 129.69 30.5862 127.118 25.8458L113.095 0Z" fill="#FBBC04"/>
<path d="M126.984 0H155.329L140.873 25.7936L140.5 9.5L126.984 0Z" fill="#EA4335"/>
<path d="M205.614 2.5V5.81428C205.614 13.3571 204.356 19.0333 201.842 22.8429C198.718 27.6429 192.966 30.7667 184.585 32.2143V22.1571C189.537 21.319 192.852 19.2619 194.528 15.9857C195.671 13.7762 196.242 10.3476 196.242 5.7V2.5H205.614Z" fill="#262626"/>
<path d="M239.099 40.4429V49.7H207.099V40.4429H239.099Z" fill="#262626"/>
<path d="M265.499 19.6429V36.3286C265.499 50.4238 263.252 62.9952 258.756 74.0429C261.194 78.8429 264.547 83.4905 268.814 87.9857V98.5C262.947 95.1476 258.033 90.081 254.071 83.3C250.258 89.6781 245.529 94.6102 239.883 98.0961V87.3125C243.875 83.151 247.081 78.6897 249.499 73.9286C244.699 61.5857 242.375 48.0619 242.528 33.3571H251.099C250.871 44.4048 251.823 53.9286 253.956 61.9286C255.785 54.919 256.699 46.5 256.699 36.6714V19.6429H251.899C249.614 25.9667 246.748 30.3095 240.653 33.3571V22.5C242.523 21.1457 242.925 19.7095 243.467 17.7755C243.565 17.4247 243.668 17.0575 243.785 16.6714C244.394 14.7667 244.699 11.9857 244.699 8.32857V2.5H253.956V6.84286C253.956 8.59524 253.918 9.89047 253.842 10.7286H268.014V19.6429H265.499Z" fill="#262626"/>
<path d="M236.929 73.1048C236.928 72.9257 236.928 72.7432 236.928 72.5571V55.3H209.499V98.0961H218.756V63.8714H227.556V98.1885H236.929V73.1048Z" fill="#262626"/>
<path d="M227.671 25.7H231.671V7.52857H238.299V34.9571H208.128V7.52857H214.528V25.7H218.642V2.5H227.671V25.7Z" fill="#262626"/>
<path d="M196.128 55.0714H201.728V98.0961H192.128V57.2429C190.147 58.081 187.633 58.8048 184.585 59.4143V49.3571C189.461 48.5191 192.775 46.2714 194.528 42.6143C195.671 40.2524 196.242 36.7476 196.242 32.1V28.9H205.614V32.2143C205.614 37.5476 205.004 41.8905 203.785 45.2429C202.261 49.3571 199.709 52.6333 196.128 55.0714Z" fill="#262626"/>
<path d="M302.027 98.0429V88.9C306.98 88.8238 310.98 88.2524 314.027 87.1857C317.532 85.9667 319.284 84.1381 319.284 81.7V80.4429H330.141V82.0429C330.141 91.719 320.77 97.0524 302.027 98.0429Z" fill="#262626"/>
<path d="M364.656 88.9V98.0429C357.113 97.5857 351.322 96.4429 347.284 94.6143C341.341 91.9476 338.37 87.719 338.37 81.9286V80.4429H349.341V81.9286C349.341 84.2143 350.941 85.9667 354.141 87.1857C356.808 88.1762 360.313 88.7476 364.656 88.9Z" fill="#262626"/>
<path fill-rule="evenodd" clip-rule="evenodd" d="M351.856 69.0143H363.627V77.7H304.77V69.0143H316.77V60.6714H307.741V52.1H316.77V46.9571H328.199V52.1H340.427V46.9571H351.856V52.1H360.884V60.6714H351.856V69.0143ZM340.427 69.0143V60.6714H328.199V69.0143H340.427Z" fill="#262626"/>
<path fill-rule="evenodd" clip-rule="evenodd" d="M345.913 28.9V29.3571C345.913 31.5667 346.37 33.1286 347.284 34.0429C348.199 34.9571 349.875 35.4143 352.313 35.4143H362.202V44.1H351.856C346.522 44.1 342.637 43.1095 340.199 41.1286C337.684 39.0714 336.427 35.719 336.427 31.0714V4.55714H361.684V28.9C361.684 28.9 353.069 28.9 345.913 28.9ZM353.514 13.1286H345.913V20.9H353.514V13.1286Z" fill="#262626"/>
<path d="M291.056 58.6143H280.313V48.7857H291.056V26.5H280.313V16.6714H291.056V2.5H301.227V65.0143C301.227 80.4901 297.127 93.347 280.656 98.1571V87.4143C290.826 82.9127 291.056 74.5343 291.056 64.7857V58.6143Z" fill="#262626"/>
<path fill-rule="evenodd" clip-rule="evenodd" d="M315.388 29.3571V28.9C322.545 28.9 331.16 28.9 331.16 28.9V4.55714H305.903V31.0714C305.903 35.719 307.16 39.0714 309.674 41.1286C312.112 43.1095 315.998 44.1 321.331 44.1H331.677V35.4143H321.788C319.35 35.4143 317.674 34.9571 316.76 34.0429C315.845 33.1286 315.388 31.5667 315.388 29.3571ZM323.132 13.1286H315.388V20.9H323.132V13.1286Z" fill="#262626"/>
</svg>
